<svg id="Layer_1" xmlns="http://www.w3.org/2000/svg" viewBox="0 0 500 500"><defs><style>.cls-1{fill:#fff;}</style></defs><path class="cls-1" d="m379.82,241.5v-39.67c0-16.56-8.84-31.88-23.2-40.16l-83.43-48.17c-14.35-8.29-32.04-8.29-46.38,0l-83.43,48.17c-14.35,8.28-23.2,23.6-23.2,40.16v96.34c0,16.56,8.84,31.89,23.2,40.16l83.43,48.17c14.34,8.29,32.03,8.29,46.38,0l83.43-48.17c14.35-8.28,23.2-23.6,23.2-40.16v-16.31l-32.9-19v16.31c0,16.57-8.84,31.89-23.2,40.17l-53.2,30.71c-12.7,7.33-28.34,7.33-41.04,0l-53.19-30.71c-14.35-8.29-23.2-23.6-23.2-40.17v-58.34c0-16.57,8.84-31.89,23.2-40.17l53.19-30.71c12.7-7.33,28.34-7.33,41.04,0l53.2,30.71c14.35,8.29,23.2,23.6,23.2,40.17v1.67l32.9,19Z"/></svg>